<svg xmlns="http://www.w3.org/2000/svg" viewBox="0 0 1246 363" width="2491" height="726" xmlns:c2pa="http://c2pa.org/manifest"><metadata><c2pa:manifest>AAAWgmp1bWIAAAAeanVtZGMycGEAEQAQgAAAqgA4m3EDYzJwYQAAABZcanVtYgAAAEdqdW1kYzJtYQARABCAAACqADibcQN1cm46YzJwYTpkNTk2YWE4ZC1iNjFiLTRhNmYtYjdkZC01NDM2YWYyZmUwOTcAAAADl2p1bWIAAAApanVtZGMyYXMAEQAQgAAAqgA4m3EDYzJwYS5hc3NlcnRpb25zAAAAALxqdW1iAAAARGp1bWRjYm9yABEAEIAAAKoAOJtxE2MycGEuaW5ncmVkaWVudC52MwAAAAAYYzJzaFgu9JhFy4uKdDT5xiWUKDMAAABwY2JvcqNpZGM6Zm9ybWF0bWltYWdlL3N2Zyt4bWxqaW5zdGFuY2VJRHgseG1wOmlpZDozMzdiNWJmYS05YzE2LTQ1MjUtOGRlMi0zMThjZmU0MDIwNjFscmVsYXRpb25zaGlwaHBhcmVudE9mAAAB4mp1bWIAAABBanVtZGNib3IAEQAQgAAAqgA4m3ETYzJwYS5hY3Rpb25zLnYyAAAAABhjMnNoMD77iX9XvPPrphNoHkhmbwAAAZljYm9yomdhY3Rpb25zgqJmYWN0aW9ua2MycGEub3BlbmVkanBhcmFtZXRlcnOha2luZ3JlZGllbnRzgaJjdXJseC1zZWxmI2p1bWJmPWMycGEuYXNzZXJ0aW9ucy9jMnBhLmluZ3JlZGllbnQudjNkaGFzaFgg9wt0K4VRN1kWyHxG+nZEgZNvAaPhuYMoZHK7QHdUfs6kZmFjdGlvbngdY29tLmFudGhyb3BpYy5jbGF1ZGUucHJvdmlkZWRqcGFyYW1ldGVyc6F4H2NvbS5hbnRocm9waWMub3JpZ2luLWNvbmZpZGVuY2VndW5rbm93bmtkZXNjcmlwdGlvbnhmQ2xhdWRlIHByb3ZpZGVkIHRoaXMgZmlsZSBhdCB0aGUgcmVxdWVzdCBvZiBhIHVzZXIgYW5kIG1heSBoYXZlIGNyZWF0ZWQgb3IgbW9kaWZpZWQgdGhlIGZpbGUgY29udGVudHMubXNvZnR3YXJlQWdlbnShZG5hbWVmQ2xhdWRlcmFsbEFjdGlvbnNJbmNsdWRlZPUAAADIanVtYgAAAEBqdW1kY2JvcgARABCAAACqADibcRNjMnBhLmhhc2guZGF0YQAAAAAYYzJzaIKQIMxp+qDwytavho24g/wAAACAY2JvcqVjYWxnZnNoYTI1NmNwYWRNAAAAAAAAAAAAAAAAAGRoYXNoWCCEg3sDxglx8MSqPgeIHKUlkOpM1ZP/x9HDlYXxtz3OD2RuYW1lbmp1bWJmIG1hbmlmZXN0amV4Y2x1c2lvbnOBomVzdGFydBiYZmxlbmd0aBkeBAAAAj5qdW1iAAAAJ2p1bWRjMmNsABEAEIAAAKoAOJtxA2MycGEuY2xhaW0udjIAAAACD2Nib3KlY2FsZ2ZzaGEyNTZpc2lnbmF0dXJleE1zZWxmI2p1bWJmPS9jMnBhL3VybjpjMnBhOmQ1OTZhYThkLWI2MWItNGE2Zi1iN2RkLTU0MzZhZjJmZTA5Ny9jMnBhLnNpZ25hdHVyZWppbnN0YW5jZUlEeCx4bXA6aWlkOjVmYmRlOWYxLTk5M2QtNDlhOS1hOTlkLTc0NWYwZmFkNDY3N3JjcmVhdGVkX2Fzc2VydGlvbnODomN1cmx4LXNlbGYjanVtYmY9YzJwYS5hc3NlcnRpb25zL2MycGEuaW5ncmVkaWVudC52M2RoYXNoWCD3C3QrhVE3WRbIfEb6dkSBk28Bo+G5gyhkcrtAd1R+zqJjdXJseCpzZWxmI2p1bWJmPWMycGEuYXNzZXJ0aW9ucy9jMnBhLmFjdGlvbnMudjJkaGFzaFgg6Q1W1OLu7wlvMY0apw6BEl7HaD6QBlnngDNgM3m5p2KiY3VybHgpc2VsZiNqdW1iZj1jMnBhLmFzc2VydGlvbnMvYzJwYS5oYXNoLmRhdGFkaGFzaFggVwkW14G3uxxHeYMNHdrI0i8RfwBSMdcX41u4cVEkcN90Y2xhaW1fZ2VuZXJhdG9yX2luZm+jZG5hbWVvQW50aHJvcGljIEZpbGVzZ3ZlcnNpb25lMS4wLjBrc3BlY1ZlcnNpb25lMi40LjAAABA4anVtYgAAAChqdW1kYzJjcwARABCAAACqADibcQNjMnBhLnNpZ25hdHVyZQAAABAIY2JvctKEWQISogEmGCFZAgowggIGMIIBjaADAgECAhRA5aAK7sI50L64g/oGQgU9Z1UTADAKBggqhkjOPQQDAzBJMRcwFQYDVQQKEw5BbnRocm9waWMsIFBCQzEuMCwGA1UEAxMlQW50aHJvcGljIENvbnRlbnQgQ3JlZGVudGlhbHMgUm9vdCBDQTAeFw0yNjA4MDcxODQzNTZaFw0yODA4MDYxOTQzNTZaMEQxFzAVBgNVBAoTDkFudGhyb3BpYywgUEJDMSkwJwYDVQQDEyBBbnRocm9waWMgQ2xhdWRlIENvbnRlbnQgU2lnbmluZzBZMBMGByqGSM49AgEGCCqGSM49AwEHA0IABJh6CmvLUBgFFNU0vUKlOVtE6djd17L5SuwX0LemFisBM3dkd/3cyjxFA3Qo5S46fX0/ihY0VZ7mfb9KF703t5OjWDBWMA4GA1UdDwEB/wQEAwIHgDAVBgNVHSUEDjAMBgorBgEEAYPoXgIBMAwGA1UdEwEB/wQCMAAwHwYDVR0jBBgwFoAUzlHiBIFOZFsj+OPEz5o+nMHXXMIwCgYIKoZIzj0EAwMDZwAwZAIwMXMdFJ4BetLLVY7ORuE9noqbbAZOZn/aArXyTwFAZfKrPzxF2vPoJNf1+UCdg1XGAjBwX1zd9WGqYkqmL5SFqw1QySjr1zJfpJM9+1rdDwSPLMOPOjKuiXjoU/pUUeG9RwmhY3BhZFkNngAAAAAAAAAAAAAAAAAAAAAAAAAAAAAAAAAAAAAAAAAAAAAAAAAAAAAAAAAAAAAAAAAAAAAAAAAAAAAAAAAAAAAAAAAAAAAAAAAAAAAAAAAAAAAAAAAAAAAAAAAAAAAAAAAAAAAAAAAAAAAAAAAAAAAAAAAAAAAAAAAAAAAAAAAAAAAAAAAAAAAAAAAAAAAAAAAAAAAAAAAAAAAAAAAAAAAAAAAAAAAAAAAAAAAAAAAAAAAAAAAAAAAAAAAAAAAAAAAAAAAAAAAAAAAAAAAAAAAAAAAAAAAAAAAAAAAAAAAAAAAAAAAAAAAAAAAAAAAAAAAAAAAAAAAAAAAAAAAAAAAAAAAAAAAAAAAAAAAAAAAAAAAAAAAAAAAAAAAAAAAAAAAAAAAAAAAAAAAAAAAAAAAAAAAAAAAAAAAAAAAAAAAAAAAAAAAAAAAAAAAAAAAAAAAAAAAAAAAAAAAAAAAAAAAAAAAAAAAAAAAAAAAAAAAAAAAAAAAAAAAAAAAAAAAAAAAAAAAAAAAAAAAAAAAAAAAAAAAAAAAAAAAAAAAAAAAAAAAAAAAAAAAAAAAAAAAAAAAAAAAAAAAAAAAAAAAAAAAAAAAAAAAAAAAAAAAAAAAAAAAAAAAAAAAAAAAAAAAAAAAAAAAAAAAAAAAAAAAAAAAAAAAAAAAAAAAAAAAAAAAAAAAAAAAAAAAAAAAAAAAAAAAAAAAAAAAAAAAAAAAAAAAAAAAAAAAAAAAAAAAAAAAAAAAAAAAAAAAAAAAAAAAAAAAAAAAAAAAAAAAAAAAAAAAAAAAAAAAAAAAAAAAAAAAAAAAAAAAAAAAAAAAAAAAAAAAAAAAAAAAAAAAAAAAAAAAAAAAAAAAAAAAAAAAAAAAAAAAAAAAAAAAAAAAAAAAAAAAAAAAAAAAAAAAAAAAAAAAAAAAAAAAAAAAAAAAAAAAAAAAAAAAAAAAAAAAAAAAAAAAAAAAAAAAAAAAAAAAAAAAAAAAAAAAAAAAAAAAAAAAAAAAAAAAAAAAAAAAAAAAAAAAAAAAAAAAAAAAAAAAAAAAAAAAAAAAAAAAAAAAAAAAAAAAAAAAAAAAAAAAAAAAAAAAAAAAAAAAAAAAAAAAAAAAAAAAAAAAAAAAAAAAAAAAAAAAAAAAAAAAAAAAAAAAAAAAAAAAAAAAAAAAAAAAAAAAAAAAAAAAAAAAAAAAAAAAAAAAAAAAAAAAAAAAAAAAAAAAAAAAAAAAAAAAAAAAAAAAAAAAAAAAAAAAAAAAAAAAAAAAAAAAAAAAAAAAAAAAAAAAAAAAAAAAAAAAAAAAAAAAAAAAAAAAAAAAAAAAAAAAAAAAAAAAAAAAAAAAAAAAAAAAAAAAAAAAAAAAAAAAAAAAAAAAAAAAAAAAAAAAAAAAAAAAAAAAAAAAAAAAAAAAAAAAAAAAAAAAAAAAAAAAAAAAAAAAAAAAAAAAAAAAAAAAAAAAAAAAAAAAAAAAAAAAAAAAAAAAAAAAAAAAAAAAAAAAAAAAAAAAAAAAAAAAAAAAAAAAAAAAAAAAAAAAAAAAAAAAAAAAAAAAAAAAAAAAAAAAAAAAAAAAAAAAAAAAAAAAAAAAAAAAAAAAAAAAAAAAAAAAAAAAAAAAAAAAAAAAAAAAAAAAAAAAAAAAAAAAAAAAAAAAAAAAAAAAAAAAAAAAAAAAAAAAAAAAAAAAAAAAAAAAAAAAAAAAAAAAAAAAAAAAAAAAAAAAAAAAAAAAAAAAAAAAAAAAAAAAAAAAAAAAAAAAAAAAAAAAAAAAAAAAAAAAAAAAAAAAAAAAAAAAAAAAAAAAAAAAAAAAAAAAAAAAAAAAAAAAAAAAAAAAAAAAAAAAAAAAAAAAAAAAAAAAAAAAAAAAAAAAAAAAAAAAAAAAAAAAAAAAAAAAAAAAAAAAAAAAAAAAAAAAAAAAAAAAAAAAAAAAAAAAAAAAAAAAAAAAAAAAAAAAAAAAAAAAAAAAAAAAAAAAAAAAAAAAAAAAAAAAAAAAAAAAAAAAAAAAAAAAAAAAAAAAAAAAAAAAAAAAAAAAAAAAAAAAAAAAAAAAAAAAAAAAAAAAAAAAAAAAAAAAAAAAAAAAAAAAAAAAAAAAAAAAAAAAAAAAAAAAAAAAAAAAAAAAAAAAAAAAAAAAAAAAAAAAAAAAAAAAAAAAAAAAAAAAAAAAAAAAAAAAAAAAAAAAAAAAAAAAAAAAAAAAAAAAAAAAAAAAAAAAAAAAAAAAAAAAAAAAAAAAAAAAAAAAAAAAAAAAAAAAAAAAAAAAAAAAAAAAAAAAAAAAAAAAAAAAAAAAAAAAAAAAAAAAAAAAAAAAAAAAAAAAAAAAAAAAAAAAAAAAAAAAAAAAAAAAAAAAAAAAAAAAAAAAAAAAAAAAAAAAAAAAAAAAAAAAAAAAAAAAAAAAAAAAAAAAAAAAAAAAAAAAAAAAAAAAAAAAAAAAAAAAAAAAAAAAAAAAAAAAAAAAAAAAAAAAAAAAAAAAAAAAAAAAAAAAAAAAAAAAAAAAAAAAAAAAAAAAAAAAAAAAAAAAAAAAAAAAAAAAAAAAAAAAAAAAAAAAAAAAAAAAAAAAAAAAAAAAAAAAAAAAAAAAAAAAAAAAAAAAAAAAAAAAAAAAAAAAAAAAAAAAAAAAAAAAAAAAAAAAAAAAAAAAAAAAAAAAAAAAAAAAAAAAAAAAAAAAAAAAAAAAAAAAAAAAAAAAAAAAAAAAAAAAAAAAAAAAAAAAAAAAAAAAAAAAAAAAAAAAAAAAAAAAAAAAAAAAAAAAAAAAAAAAAAAAAAAAAAAAAAAAAAAAAAAAAAAAAAAAAAAAAAAAAAAAAAAAAAAAAAAAAAAAAAAAAAAAAAAAAAAAAAAAAAAAAAAAAAAAAAAAAAAAAAAAAAAAAAAAAAAAAAAAAAAAAAAAAAAAAAAAAAAAAAAAAAAAAAAAAAAAAAAAAAAAAAAAAAAAAAAAAAAAAAAAAAAAAAAAAAAAAAAAAAAAAAAAAAAAAAAAAAAAAAAAAAAAAAAAAAAAAAAAAAAAAAAAAAAAAAAAAAAAAAAAAAAAAAAAAAAAAAAAAAAAAAAAAAAAAAAAAAAAAAAAAAAAAAAAAAAAAAAAAAAAAAAAAAAAAAAAAAAAAAAAAAAAAAAAAAAAAAAAAAAAAAAAAAAAAAAAAAAAAAAAAAAAAAAAAAAAAAAAAAAAAAAAAAAAAAAAAAAAAAAAAAAAAAAAAAAAAAAAAAAAAAAAAAAAAAAAAAAAAAAAAAAAAAAAAAAAAAAAAAAAAAAAAAAAAAAAAAAAAAAAAAAAAAAAAAAAAAAAAAAAAAAAAAAAAAAAAAAAAAAAAAAAAAAAAAAAAAAAAAAAAAAAAAAAAAAAAAAAAAAAAAAAAAAAAAAAAAAAAAAAAAAAAAAAAAAAAAAAAAAAAAAAAAAAAAAAAAAAAAAAAAAAAAAAAAAAAAAAAAAAAAAAAAAAAAAAAAAAAAAAAAAAAAAAAAAAAAAAAAAAAAAAAAAAAAAAAAAAAAAAAAAAAAAAAAAAAAAAAAAAAAAAAAAAAAAAAAAAAAAAAAAAAAAAAAAAAAAAAAAAAAAAAAAAAAAAAAAAAAAAAAAAAAAAAAAAAAAAAAAAAAAAAAAAAAAAAAAAAAAAAAAAAAAAAAAAAAAAAAAAAAAAAAAAAAAAAAAAAAAAAAAAAAAAAAAAAAAAAAAAAAAAAAAAAAAAAAAAAAAAAAAAAAAAAAAAAAAAAAAAAAAAAAAAAAAAAAAAAAAAAAAAAAAAAAAAAAAAAAAAAAAAAAAAAAAAAAAAAAAAAAAAAAAAAAAAAAAAAAAAAAAAAAAAAAAAAAAAAAAAAAAAAAAAAAAAAAAAAAAAAAAAAAAAAAAAAAAAAAAAAAAAAAAAAAAAAAAAAAAAAAAAAAAAAAAAAAAAAAAAAAAAAAAAAAAAAAAAAAAAAAAAAAAAAAAAAAAAAAAAAAAAAAAAAAAAAAAAAAAAAAAAAAAAAAAAAAAAAAAAAAAAAAAAAAAAAAAAAAAAAAAAAAAAAAAAAAAAAAAAAAAAAAAAAAAAAAAAAAAAAAAAAAAAAAAAAAAAAAAAAAAAAAAAAAAAAAAAAAAAAAAAAAAAAAAAAAAAAAAAAAAAAAAAAAAAAAAAAAAAAAAAAAAAAAAAAAAAAAAAAAAAAAAAAAAAAAAAAAAAAAAAAAAAAAAAAAAAAAAAAAAAAAAAAAAAAAAAAAAAAAAAAAAAAAAAAAAAAAAAAAAAAAAAAAAAAAAAAAAAAAAAAAAAAAAAAAAAAAAAAAAAAAAAAAAAAAAAAAAAAAAAAAAAAAAAAAAAAAAAAAAAAAAAAAAAAAAAAAAAAAAAAAAAAAAAAAAAAAAAAAAAAAAAAAAAAAAAAAAAAAAAAAAAAAAAAAAAAAAAAAAAAAAAAAAAAAAAAAAAAAAAAAAAAAAAAAAAAAAAAAAAAAAAAAAAAAAAAAAAAAAAAAAAAAAAAAAAAAAAAAAAAAAAAAAAAAAAAAAAAAAAAAAAAAAAAAAAAAAAAAAAAAAAAAAAAAAAAAAAAAAAAAAAAAAAAAAAAAAAAAAAAAAAAAAAAAAAAAAAAAAAAAAAAAAAAAAAAAAAAAAAAAAAAAAAAAAAAAAAAAAAAAAAAAAAAAAAAAAAAAAAAAAAAAAAAAAAAAAAAAAAAAAAAAAAAAAAAAAAAAAAAAAAAAPZYQEsYX+tHYMgat/gCghcxPTJo4SQ5fVhpJ6oFFobCU6MW74zbjLblToL2PJuHpJjZjxv2hrfXu770UzBaMBL/k10=</c2pa:manifest></metadata>
<g transform="scale(0.62) translate(-131 144)"><polygon points="481.6,-22.3 898.6,218.5 596.7,392.8 179.7,152.0" fill="#F7F8F7" />
<polygon points="481.6,-22.3 898.6,218.5 596.7,392.8 179.7,152.0" fill="none" stroke="#6E9EA3" stroke-width="2.2" stroke-linejoin="round" />
<polygon points="481.6,0.1 859.8,218.5 596.7,370.4 218.5,152.0" fill="none" stroke="#6E9EA3" stroke-width="1.6" stroke-dasharray="7 5"/>
<polygon points="481.6,26.7 828.3,226.9 596.7,360.6 250.0,160.4" fill="#E4E6E4" opacity="0.9"/>
<polygon points="554.3,64.5 402.7,152.0 402.7,26.0 554.3,-61.5" fill="#C06B45" />
<polygon points="547.6,60.7 510.5,82.1 510.5,52.7 547.6,31.3" fill="#E9E6DF" />
<polygon points="546.2,59.8 511.9,79.6 511.9,53.6 546.2,33.8" fill="#2F3D48" />
<polygon points="546.2,44.7 529.0,43.7 546.2,33.8" fill="#4C6270" opacity="0.55"/>
<polygon points="547.6,18.7 510.5,40.1 510.5,10.7 547.6,-10.8" fill="#E9E6DF" />
<polygon points="546.2,17.8 511.9,37.6 511.9,11.6 546.2,-8.2" fill="#2F3D48" />
<polygon points="546.2,2.7 529.0,1.7 546.2,-8.2" fill="#4C6270" opacity="0.55"/>
<polygon points="547.6,-23.3 510.5,-1.9 510.5,-31.3 547.6,-52.8" fill="#E9E6DF" />
<polygon points="546.2,-24.2 511.9,-4.4 511.9,-30.4 546.2,-50.2" fill="#2F3D48" />
<polygon points="546.2,-39.3 529.0,-40.3 546.2,-50.2" fill="#4C6270" opacity="0.55"/>
<polygon points="497.1,89.8 459.9,111.3 459.9,81.9 497.1,60.4" fill="#E9E6DF" />
<polygon points="495.7,89.0 461.4,108.8 461.4,82.7 495.7,62.9" fill="#2F3D48" />
<polygon points="495.7,73.9 478.5,72.8 495.7,62.9" fill="#4C6270" opacity="0.55"/>
<polygon points="497.1,47.8 459.9,69.3 459.9,39.9 497.1,18.4" fill="#E9E6DF" />
<polygon points="495.7,47.0 461.4,66.8 461.4,40.7 495.7,20.9" fill="#2F3D48" />
<polygon points="495.7,31.9 478.5,30.8 495.7,20.9" fill="#4C6270" opacity="0.55"/>
<polygon points="499.5,47.8 510.5,54.1 468.4,78.4 457.5,72.1" fill="#F6F4EF" />
<polygon points="510.5,54.1 468.4,78.4 468.4,64.4 510.5,40.1" fill="#9DB4BD" opacity="0.65"/>
<polygon points="510.5,54.1 468.4,78.4 468.4,81.9 510.5,57.6" fill="#DCD8D0" />
<polygon points="497.1,5.8 459.9,27.3 459.9,-2.1 497.1,-23.6" fill="#E9E6DF" />
<polygon points="495.7,5.0 461.4,24.8 461.4,-1.3 495.7,-21.1" fill="#2F3D48" />
<polygon points="495.7,-10.1 478.5,-11.2 495.7,-21.1" fill="#4C6270" opacity="0.55"/>
<polygon points="499.5,5.8 510.5,12.1 468.4,36.4 457.5,30.1" fill="#F6F4EF" />
<polygon points="510.5,12.1 468.4,36.4 468.4,22.4 510.5,-1.9" fill="#9DB4BD" opacity="0.65"/>
<polygon points="510.5,12.1 468.4,36.4 468.4,39.9 510.5,15.6" fill="#DCD8D0" />
<polygon points="446.6,119.0 409.4,140.5 409.4,111.1 446.6,89.6" fill="#E9E6DF" />
<polygon points="445.1,118.1 410.9,137.9 410.9,111.9 445.1,92.1" fill="#2F3D48" />
<polygon points="445.1,103.0 428.0,102.0 445.1,92.1" fill="#4C6270" opacity="0.55"/>
<polygon points="446.6,77.0 409.4,98.5 409.4,69.0 446.6,47.6" fill="#E9E6DF" />
<polygon points="445.1,76.1 410.9,95.9 410.9,69.9 445.1,50.1" fill="#2F3D48" />
<polygon points="445.1,61.0 428.0,60.0 445.1,50.1" fill="#4C6270" opacity="0.55"/>
<polygon points="446.6,35.0 409.4,56.5 409.4,27.0 446.6,5.6" fill="#E9E6DF" />
<polygon points="445.1,34.1 410.9,53.9 410.9,27.9 445.1,8.1" fill="#2F3D48" />
<polygon points="445.1,19.0 428.0,18.0 445.1,8.1" fill="#4C6270" opacity="0.55"/>
<polygon points="687.7,141.5 536.1,229.0 536.1,103.0 687.7,15.5" fill="#C06B45" />
<polygon points="681.0,137.7 643.8,159.1 643.8,129.7 681.0,108.3" fill="#E9E6DF" />
<polygon points="679.5,136.8 645.3,156.6 645.3,130.6 679.5,110.8" fill="#2F3D48" />
<polygon points="679.5,121.7 662.4,120.7 679.5,110.8" fill="#4C6270" opacity="0.55"/>
<polygon points="681.0,95.7 643.8,117.1 643.8,87.7 681.0,66.3" fill="#E9E6DF" />
<polygon points="679.5,94.8 645.3,114.6 645.3,88.6 679.5,68.8" fill="#2F3D48" />
<polygon points="679.5,79.7 662.4,78.7 679.5,68.8" fill="#4C6270" opacity="0.55"/>
<polygon points="681.0,53.7 643.8,75.1 643.8,45.7 681.0,24.3" fill="#E9E6DF" />
<polygon points="679.5,52.8 645.3,72.6 645.3,46.6 679.5,26.8" fill="#2F3D48" />
<polygon points="679.5,37.7 662.4,36.7 679.5,26.8" fill="#4C6270" opacity="0.55"/>
<polygon points="630.5,166.8 593.3,188.3 593.3,158.9 630.5,137.4" fill="#E9E6DF" />
<polygon points="629.0,166.0 594.8,185.8 594.8,159.7 629.0,139.9" fill="#2F3D48" />
<polygon points="629.0,150.9 611.9,149.8 629.0,139.9" fill="#4C6270" opacity="0.55"/>
<polygon points="630.5,124.8 593.3,146.3 593.3,116.9 630.5,95.4" fill="#E9E6DF" />
<polygon points="629.0,124.0 594.8,143.8 594.8,117.7 629.0,97.9" fill="#2F3D48" />
<polygon points="629.0,108.9 611.9,107.8 629.0,97.9" fill="#4C6270" opacity="0.55"/>
<polygon points="632.9,124.8 643.8,131.1 601.8,155.4 590.9,149.1" fill="#F6F4EF" />
<polygon points="643.8,131.1 601.8,155.4 601.8,141.4 643.8,117.1" fill="#9DB4BD" opacity="0.65"/>
<polygon points="643.8,131.1 601.8,155.4 601.8,158.9 643.8,134.6" fill="#DCD8D0" />
<polygon points="630.5,82.8 593.3,104.3 593.3,74.9 630.5,53.4" fill="#E9E6DF" />
<polygon points="629.0,82.0 594.8,101.8 594.8,75.7 629.0,55.9" fill="#2F3D48" />
<polygon points="629.0,66.9 611.9,65.8 629.0,55.9" fill="#4C6270" opacity="0.55"/>
<polygon points="632.9,82.8 643.8,89.1 601.8,113.4 590.9,107.1" fill="#F6F4EF" />
<polygon points="643.8,89.1 601.8,113.4 601.8,99.4 643.8,75.1" fill="#9DB4BD" opacity="0.65"/>
<polygon points="643.8,89.1 601.8,113.4 601.8,116.9 643.8,92.6" fill="#DCD8D0" />
<polygon points="580.0,196.0 542.8,217.4 542.8,188.0 580.0,166.6" fill="#E9E6DF" />
<polygon points="578.5,195.1 544.2,214.9 544.2,188.9 578.5,169.1" fill="#2F3D48" />
<polygon points="578.5,180.0 561.4,179.0 578.5,169.1" fill="#4C6270" opacity="0.55"/>
<polygon points="580.0,154.0 542.8,175.4 542.8,146.0 580.0,124.6" fill="#E9E6DF" />
<polygon points="578.5,153.1 544.2,172.9 544.2,146.9 578.5,127.1" fill="#2F3D48" />
<polygon points="578.5,138.0 561.4,137.0 578.5,127.1" fill="#4C6270" opacity="0.55"/>
<polygon points="580.0,112.0 542.8,133.4 542.8,104.0 580.0,82.6" fill="#E9E6DF" />
<polygon points="578.5,111.1 544.2,130.9 544.2,104.9 578.5,85.1" fill="#2F3D48" />
<polygon points="578.5,96.0 561.4,95.0 578.5,85.1" fill="#4C6270" opacity="0.55"/>
<polygon points="821.0,218.5 596.7,348.0 596.7,222.0 821.0,92.5" fill="#C06B45" />
<polygon points="814.4,214.7 782.8,232.8 782.8,203.4 814.4,185.3" fill="#E9E6DF" />
<polygon points="812.9,213.8 784.3,230.3 784.3,204.3 812.9,187.8" fill="#2F3D48" />
<polygon points="812.9,198.7 798.6,196.0 812.9,187.8" fill="#4C6270" opacity="0.55"/>
<polygon points="814.4,172.7 782.8,190.8 782.8,161.4 814.4,143.2" fill="#E9E6DF" />
<polygon points="812.9,171.8 784.3,188.3 784.3,162.3 812.9,145.8" fill="#2F3D48" />
<polygon points="812.9,156.7 798.6,154.0 812.9,145.8" fill="#4C6270" opacity="0.55"/>
<polygon points="814.4,130.7 782.8,148.8 782.8,119.4 814.4,101.3" fill="#E9E6DF" />
<polygon points="812.9,129.8 784.3,146.3 784.3,120.3 812.9,103.8" fill="#2F3D48" />
<polygon points="812.9,114.7 798.6,112.0 812.9,103.8" fill="#4C6270" opacity="0.55"/>
<polygon points="769.5,240.6 738.0,258.8 738.0,229.4 769.5,211.2" fill="#E9E6DF" />
<polygon points="768.1,239.7 739.4,256.2 739.4,230.2 768.1,213.7" fill="#2F3D48" />
<polygon points="768.1,224.6 753.7,221.9 768.1,213.7" fill="#4C6270" opacity="0.55"/>
<polygon points="769.5,198.6 738.0,216.8 738.0,187.4 769.5,169.1" fill="#E9E6DF" />
<polygon points="768.1,197.7 739.4,214.2 739.4,188.2 768.1,171.7" fill="#2F3D48" />
<polygon points="768.1,182.6 753.7,179.9 768.1,171.7" fill="#4C6270" opacity="0.55"/>
<polygon points="771.9,198.6 782.8,204.9 746.5,225.8 735.6,219.6" fill="#F6F4EF" />
<polygon points="782.8,204.9 746.5,225.8 746.5,211.8 782.8,190.8" fill="#9DB4BD" opacity="0.65"/>
<polygon points="782.8,204.9 746.5,225.8 746.5,229.3 782.8,208.4" fill="#DCD8D0" />
<polygon points="769.5,156.6 738.0,174.8 738.0,145.4 769.5,127.1" fill="#E9E6DF" />
<polygon points="768.1,155.7 739.4,172.2 739.4,146.2 768.1,129.7" fill="#2F3D48" />
<polygon points="768.1,140.6 753.7,137.9 768.1,129.7" fill="#4C6270" opacity="0.55"/>
<polygon points="771.9,156.6 782.8,162.9 746.5,183.8 735.6,177.6" fill="#F6F4EF" />
<polygon points="782.8,162.9 746.5,183.8 746.5,169.8 782.8,148.9" fill="#9DB4BD" opacity="0.65"/>
<polygon points="782.8,162.9 746.5,183.8 746.5,187.3 782.8,166.4" fill="#DCD8D0" />
<polygon points="724.6,266.4 693.1,284.7 693.1,255.3 724.6,237.0" fill="#E9E6DF" />
<polygon points="723.2,265.6 694.6,282.1 694.6,256.1 723.2,239.6" fill="#2F3D48" />
<polygon points="723.2,250.5 708.9,247.8 723.2,239.6" fill="#4C6270" opacity="0.55"/>
<polygon points="724.6,224.4 693.1,242.7 693.1,213.2 724.6,195.0" fill="#E9E6DF" />
<polygon points="723.2,223.6 694.6,240.1 694.6,214.1 723.2,197.6" fill="#2F3D48" />
<polygon points="723.2,208.5 708.9,205.8 723.2,197.6" fill="#4C6270" opacity="0.55"/>
<polygon points="724.6,182.4 693.1,200.7 693.1,171.2 724.6,153.0" fill="#E9E6DF" />
<polygon points="723.2,181.6 694.6,198.1 694.6,172.1 723.2,155.6" fill="#2F3D48" />
<polygon points="723.2,166.5 708.9,163.8 723.2,155.6" fill="#4C6270" opacity="0.55"/>
<polygon points="679.8,292.4 648.3,310.6 648.3,281.1 679.8,262.9" fill="#E9E6DF" />
<polygon points="678.3,291.5 649.7,308.0 649.7,282.0 678.3,265.5" fill="#2F3D48" />
<polygon points="678.3,276.4 664.0,273.7 678.3,265.5" fill="#4C6270" opacity="0.55"/>
<polygon points="679.8,250.4 648.3,268.6 648.3,239.1 679.8,220.9" fill="#E9E6DF" />
<polygon points="678.3,249.5 649.7,266.0 649.7,240.0 678.3,223.5" fill="#2F3D48" />
<polygon points="678.3,234.4 664.0,231.7 678.3,223.5" fill="#4C6270" opacity="0.55"/>
<polygon points="682.2,250.4 693.1,256.7 656.8,277.6 645.8,271.3" fill="#F6F4EF" />
<polygon points="693.1,256.7 656.8,277.6 656.8,263.6 693.1,242.7" fill="#9DB4BD" opacity="0.65"/>
<polygon points="693.1,256.7 656.8,277.6 656.8,281.1 693.1,260.2" fill="#DCD8D0" />
<polygon points="679.8,208.4 648.3,226.6 648.3,197.1 679.8,178.9" fill="#E9E6DF" />
<polygon points="678.3,207.5 649.7,224.0 649.7,198.0 678.3,181.5" fill="#2F3D48" />
<polygon points="678.3,192.4 664.0,189.7 678.3,181.5" fill="#4C6270" opacity="0.55"/>
<polygon points="682.2,208.4 693.1,214.7 656.8,235.6 645.8,229.3" fill="#F6F4EF" />
<polygon points="693.1,214.7 656.8,235.6 656.8,221.6 693.1,200.7" fill="#9DB4BD" opacity="0.65"/>
<polygon points="693.1,214.7 656.8,235.6 656.8,239.1 693.1,218.2" fill="#DCD8D0" />
<polygon points="634.9,318.3 603.4,336.5 603.4,307.1 634.9,288.9" fill="#E9E6DF" />
<polygon points="633.5,317.4 604.9,333.9 604.9,307.9 633.5,291.4" fill="#2F3D48" />
<polygon points="633.5,302.3 619.2,299.6 633.5,291.4" fill="#4C6270" opacity="0.55"/>
<polygon points="634.9,276.3 603.4,294.5 603.4,265.1 634.9,246.9" fill="#E9E6DF" />
<polygon points="633.5,275.4 604.9,291.9 604.9,265.9 633.5,249.4" fill="#2F3D48" />
<polygon points="633.5,260.3 619.2,257.6 633.5,249.4" fill="#4C6270" opacity="0.55"/>
<polygon points="634.9,234.3 603.4,252.5 603.4,223.1 634.9,204.9" fill="#E9E6DF" />
<polygon points="633.5,233.4 604.9,249.9 604.9,223.9 633.5,207.4" fill="#2F3D48" />
<polygon points="633.5,218.3 619.2,215.6 633.5,207.4" fill="#4C6270" opacity="0.55"/>
<polygon points="257.3,152.0 596.7,348.0 596.7,222.0 257.3,26.0" fill="#A9573A" />
<polygon points="267.0,150.6 290.0,163.9 290.0,53.3 267.0,40.0" fill="#E9E6DF" />
<polygon points="268.4,149.8 288.5,161.4 288.5,54.1 268.4,42.5" fill="#27333C" />
<polygon points="268.4,116.4 288.5,128.1 288.5,125.0 268.4,113.4" fill="#6F7E86" />
<polygon points="268.4,74.4 288.5,86.1 288.5,83.0 268.4,71.4" fill="#6F7E86" />
<polygon points="309.4,175.1 332.4,188.4 332.4,77.8 309.4,64.5" fill="#E9E6DF" />
<polygon points="310.8,174.3 331.0,185.9 331.0,78.6 310.8,67.0" fill="#27333C" />
<polygon points="310.8,140.9 331.0,152.6 331.0,149.5 310.8,137.9" fill="#6F7E86" />
<polygon points="310.8,98.9 331.0,110.6 331.0,107.5 310.8,95.9" fill="#6F7E86" />
<polygon points="351.8,199.6 374.9,212.9 374.9,102.3 351.8,89.0" fill="#E9E6DF" />
<polygon points="353.3,198.8 373.4,210.4 373.4,103.1 353.3,91.5" fill="#27333C" />
<polygon points="353.3,165.4 373.4,177.1 373.4,174.0 353.3,162.4" fill="#6F7E86" />
<polygon points="353.3,123.4 373.4,135.1 373.4,132.0 353.3,120.4" fill="#6F7E86" />
<polygon points="394.3,224.1 417.3,237.4 417.3,126.8 394.3,113.5" fill="#E9E6DF" />
<polygon points="395.7,223.3 415.8,234.9 415.8,127.6 395.7,116.0" fill="#27333C" />
<polygon points="395.7,189.9 415.8,201.6 415.8,198.5 395.7,186.9" fill="#6F7E86" />
<polygon points="395.7,147.9 415.8,159.6 415.8,156.5 395.7,144.9" fill="#6F7E86" />
<polygon points="436.7,248.6 459.7,261.9 459.7,151.3 436.7,138.0" fill="#E9E6DF" />
<polygon points="438.1,247.8 458.3,259.4 458.3,152.1 438.1,140.5" fill="#27333C" />
<polygon points="438.1,214.4 458.3,226.1 458.3,223.0 438.1,211.4" fill="#6F7E86" />
<polygon points="438.1,172.4 458.3,184.1 458.3,181.0 438.1,169.4" fill="#6F7E86" />
<polygon points="479.1,273.1 502.2,286.4 502.2,175.8 479.1,162.5" fill="#E9E6DF" />
<polygon points="480.6,272.3 500.7,283.9 500.7,176.6 480.6,165.0" fill="#27333C" />
<polygon points="480.6,238.9 500.7,250.6 500.7,247.5 480.6,235.9" fill="#6F7E86" />
<polygon points="480.6,196.9 500.7,208.6 500.7,205.5 480.6,193.9" fill="#6F7E86" />
<polygon points="521.6,297.6 544.6,310.9 544.6,200.3 521.6,187.0" fill="#E9E6DF" />
<polygon points="523.0,296.8 543.1,308.4 543.1,201.1 523.0,189.5" fill="#27333C" />
<polygon points="523.0,263.4 543.1,275.1 543.1,272.0 523.0,260.4" fill="#6F7E86" />
<polygon points="523.0,221.4 543.1,233.1 543.1,230.0 523.0,218.4" fill="#6F7E86" />
<polygon points="564.0,322.1 587.0,335.4 587.0,224.8 564.0,211.5" fill="#E9E6DF" />
<polygon points="565.5,321.3 585.6,332.9 585.6,225.6 565.5,214.0" fill="#27333C" />
<polygon points="565.5,287.9 585.6,299.6 585.6,296.5 565.5,284.9" fill="#6F7E86" />
<polygon points="565.5,245.9 585.6,257.6 585.6,254.5 565.5,242.9" fill="#6F7E86" />
<polygon points="481.6,-103.5 554.3,-61.5 402.7,26.0 463.4,61.0 614.9,-26.5 687.7,15.5 536.1,103.0 596.7,138.0 748.3,50.5 821.0,92.5 596.7,222.0 257.3,26.0" fill="#F6F4EF" />
<polygon points="821.0,92.5 596.7,222.0 596.7,227.6 821.0,98.1" fill="#DCD8D0" />
<polygon points="257.3,26.0 596.7,222.0 596.7,227.6 257.3,31.6" fill="#CFCAC1" />
<polygon points="554.3,-61.5 402.7,26.0 402.7,31.6 554.3,-55.9" fill="#DCD8D0" />
<polygon points="687.7,15.5 536.1,103.0 536.1,108.6 687.7,21.1" fill="#DCD8D0" />
<polygon points="481.6,-97.2 543.4,-61.5 391.8,26.0 463.4,67.3 614.9,-20.2 676.8,15.5 525.2,103.0 596.7,144.3 748.3,56.8 810.1,92.5 596.7,215.7 268.2,26.0" fill="#5F8C8D" />
<path d="M170.7,152.0 L188.7,152.0 M179.7,143.0 L179.7,161.0" stroke="#6E9EA3" stroke-width="2"/>
<path d="M587.7,392.8 L605.7,392.8 M596.7,383.8 L596.7,401.8" stroke="#6E9EA3" stroke-width="2"/>
<path d="M889.6,218.5 L907.6,218.5 M898.6,209.5 L898.6,227.5" stroke="#6E9EA3" stroke-width="2"/>
<path d="M815.5,231.5 L831.5,247.5 M831.5,231.5 L815.5,247.5 M812.5,239.5 L834.5,239.5" stroke="#E0603A" stroke-width="2.4" stroke-linecap="round"/>
<path d="M346.2,222.4 L362.2,238.4 M362.2,222.4 L346.2,238.4 M343.2,230.4 L365.2,230.4" stroke="#E0603A" stroke-width="2.4" stroke-linecap="round"/></g>
<text x="516" y="222" font-family="'Inter','Helvetica Neue','Arial Black',Arial,sans-serif" font-weight="800" font-size="112" letter-spacing="-3.4" fill="#1B2230">EaseScore<tspan fill="#C8512D">.AI</tspan></text></svg>